HIERARCHY
ROOT ui
{
	 OFFSET 0 0 0
	 CHANNELS 3 XPosition YPosition Z Position
	 EndSite
	 {
	 OFFSET 0 -1 0
	 }
}
ROOT li
{
	 OFFSET 0 0 0
	 CHANNELS 3 XPosition YPosition Z Position
	 EndSite
	 {
	 OFFSET 0 -1 0
	 }
}
ROOT ul
{
	 OFFSET 0 0 0
	 CHANNELS 3 XPosition YPosition Z Position
	 EndSite
	 {
	 OFFSET 0 -1 0
	 }
}
ROOT ll
{
	 OFFSET 0 0 0
	 CHANNELS 3 XPosition YPosition Z Position
	 EndSite
	 {
	 OFFSET 0 -1 0
	 }
}
ROOT tt
{
	 OFFSET 0 0 0
	 CHANNELS 3 XPosition YPosition Z Position
	 EndSite
	 {
	 OFFSET 0 -1 0
	 }
}
ROOT tb
{
	 OFFSET 0 0 0
	 CHANNELS 3 XPosition YPosition Z Position
	 EndSite
	 {
	 OFFSET 0 -1 0
	 }
}
ROOT td
{
	 OFFSET 0 0 0
	 CHANNELS 3 XPosition YPosition Z Position
	 EndSite
	 {
	 OFFSET 0 -1 0
	 }
}
ROOT v
{
	 OFFSET 0 0 0
	 CHANNELS 3 XPosition YPosition Z Position
	 EndSite
	 {
	 OFFSET 0 -1 0
	 }
}
ROOT bn
{
	 OFFSET 0 0 0
	 CHANNELS 3 XPosition YPosition Z Position
	 EndSite
	 {
	 OFFSET 0 -1 0
	 }
}
MOTION
Frames: 21
Frame Time: 0.002
-0.001457671046257019	-4.7150400280952456E-4	0		0.3930895080566406	-2.28839111328125	0		-1.133102783203125	0.1340806884765625	0		-0.8477872924804688	-2.427810546875	0		1.6226947021484375	-0.42844598388671873	0		3.2220244140625	-0.005794349193572998	0		4.60516064453125	0.1459210205078125	0		5.607166015625	0.07982601928710938	0		-0.18167144775390626	5.93002978515625	0		
0.0020916340351104738	0.002124156951904297	0		0.4330129089355469	-2.295375244140625	0		-1.1336414794921874	0.13348020935058594	0		-0.8436361694335938	-2.42441845703125	0		1.6401939697265624	-0.4337218017578125	0		3.24021533203125	-0.021702871322631836	0		4.6135986328125	0.14552987670898437	0		5.6168798828125	0.08800733184814453	0		-0.30182553100585935	5.91887646484375	0		
0.004647776126861573	0.0047431569099426266	0		0.41016961669921875	-2.288176513671875	0		-1.126023193359375	0.14074757385253905	0		-0.8374736938476562	-2.419047607421875	0		1.643867431640625	-0.42974942016601564	0		3.23718603515625	0.0037592310905456543	0		4.6130673828125	0.14625259399414062	0		5.6165595703125	0.08961146545410156	0		-0.28848556518554686	5.92820263671875	0		
0.0041639690399169925	0.004426559925079346	0		0.4521839294433594	-2.288177734375	0		-1.0556395263671876	0.1338893280029297	0		-0.8394791870117188	-2.421505859375	0		1.6335325927734374	-0.4265350341796875	0		3.23026318359375	-0.019756940841674803	0		4.602830078125	0.16209535217285156	0		5.61209912109375	0.1085747299194336	0		-0.18718931579589843	5.92893359375	0		
6.490600109100342E-4	0.001176239013671875	0		0.3883838195800781	-2.276235107421875	0		-1.1351673583984374	0.13180986022949218	0		-0.7726375732421875	-2.43219140625	0		1.6510626220703124	-0.4318457946777344	0		3.22904296875	-0.00641195821762085	0		4.603083984375	0.14867831420898436	0		5.6059130859375	0.08595343017578125	0		-0.18881500244140625	5.9285908203125	0		
2.1769000589847565E-4	8.847619891166687E-4	0		0.4480662841796875	-2.293531982421875	0		-1.0606343994140626	0.12996588134765624	0		-0.8096238403320313	-2.43195751953125	0		1.6328021240234376	-0.42651681518554685	0		3.229379150390625	-0.01913669013977051	0		4.60262548828125	0.14921742248535155	0		5.6085751953125	0.09914940643310546	0		-0.19031605529785156	5.9282646484375	0		
-1.7886500060558319E-4	6.101329922676087E-4	0		0.4060351867675781	-2.2939853515625	0		-1.1360401611328126	0.1308523406982422	0		-0.8096210327148438	-2.432364990234375	0		1.6324757080078125	-0.4265234680175781	0		3.234252197265625	-0.00397266697883606	0		4.60631103515625	0.15562608337402345	0		5.61541015625	0.09473956298828125	0		-0.30989828491210936	5.9170615234375	0		
0.01953227996826172	0.004000771045684815	0		0.4261741027832031	-2.285535400390625	0		-1.1323458251953125	0.13435739135742186	0		-0.8394537963867188	-2.423212158203125	0		1.6421280517578125	-0.42971359252929686	0		3.23273779296875	-0.012730681419372558	0		4.605931640625	0.15605201721191406	0		5.611025390625	0.11318881225585938	0		-0.17776235961914064	5.93640869140625	0		
0.0022048439979553223	0.003066520929336548	0		0.40806222534179687	-2.2913974609375	0		-1.132675537109375	0.13397265625	0		-0.770578369140625	-2.43176611328125	0		1.631927001953125	-0.426556396484375	0		3.236672119140625	0.001390038013458252	0		4.60559912109375	0.15642671203613281	0		5.61082177734375	0.11404304504394532	0		-0.19303306579589843	5.92639697265625	0		
0.02388300132751465	-5.287299752235413E-4	0		0.42411529541015625	-2.288841552734375	0		-1.1370262451171875	0.12969674682617188	0		-0.8434953002929687	-2.427799560546875	0		1.631711181640625	-0.42657769775390625	0		3.232162841796875	-0.012370979309082031	0		4.605314453125	0.15675479125976563	0		5.60770947265625	0.10280583190917969	0		-0.19497776794433594	5.9271787109375	0		
-0.006246857166290283	0.00480129623413086	0		0.4241309509277344	-2.28898828125	0		-1.1372606201171875	0.12938847351074217	0		-0.774614013671875	-2.43727001953125	0		1.649445068359375	-0.43191046142578127	0		3.222979248046875	-0.010072243690490723	0		4.60097412109375	0.15111013793945313	0		5.61050537109375	0.11544795227050782	0		-0.19581129455566407	5.9269677734375	0		
-0.0015132880210876464	-4.5304200053215024E-4	0		0.4330184326171875	-2.2972724609375	0		-1.137451416015625	0.12911781311035156	0		-0.84342626953125	-2.42832177734375	0		1.6372720947265624	-0.4337238464355469	0		3.22164599609375	-0.018932506561279296	0		4.5987646484375	0.15038973999023436	0		5.61454638671875	0.09853631591796876	0		-0.31374679565429686	5.91479736328125	0		
0.0013960429430007935	0.00234833288192749	0		0.43713916015625	-2.292454833984375	0		-1.1294671630859374	0.13674510192871095	0		-0.8013352661132812	-2.426253662109375	0		1.6412318115234374	-0.4298132629394531	0		3.25674072265625	-0.005432273864746094	0		4.60883251953125	0.16342478942871094	0		5.61668212890625	0.1110377426147461	0		-0.16581842041015624	5.9440859375	0		
0.0012876240015029907	0.0022226269245147704	0		0.4283190002441406	-2.284399658203125	0		-1.133652099609375	0.13261415100097657	0		-0.8392619018554688	-2.424783447265625	0		1.631204345703125	-0.4266612548828125	0		3.21651904296875	-0.011660878181457519	0		4.60461181640625	0.15767013549804687	0		5.610232421875	0.1169001693725586	0		-0.18246746826171875	5.9352236328125	0		
-0.0018420859575271607	-8.320810198783875E-4	0		0.4502430419921875	-2.291855712890625	0		-1.1378057861328126	0.12851434326171876	0		-0.7723707275390626	-2.435074462890625	0		1.6262515869140626	-0.42059381103515625	0		3.222473876953125	-0.009693035125732422	0		4.60042236328125	0.15188543701171875	0		5.60724658203125	0.10524832916259766	0		-0.1970402069091797	5.92534716796875	0		
-0.0018958979845046997	-9.204869866371155E-4	0		0.42432986450195315	-2.28948291015625	0		-1.1378653564453125	0.12837489318847656	0		-0.8452537231445313	-2.430958984375	0		1.6490267333984374	-0.43199777221679686	0		3.21230322265625	-0.01646587371826172	0		4.604462890625	0.15793507385253908	0		5.60721435546875	0.10552307891845703	0		-0.19736027526855468	5.92524951171875	0		
-0.0019285190105438233	-9.92579996585846E-4	0		0.43324172973632813	-2.297691162109375	0		-1.137902587890625	0.12826246643066405	0		-0.8452000732421875	-2.43106103515625	0		1.6369771728515625	-0.43380776977539065	0		3.23250537109375	-0.002764517068862915	0		4.6044248046875	0.15802655029296875	0		5.61429150390625	0.100254150390625	0		-0.31678945922851565	5.9151875	0		
0.0011067839860916138	0.0018989900350570678	0		0.4083761291503906	-2.292314697265625	0		-1.13385400390625	0.13210667419433594	0		-0.8410831298828125	-2.427208984375	0		1.631093017578125	-0.4267208862304688	0		3.21634033203125	-0.011463706970214843	0		4.60440576171875	0.15809214782714845	0		5.61012646484375	0.11788248443603516	0		-0.19681037902832033	5.923091796875	0		
-0.0019441369771957396	-0.001093762993812561	0		0.45246267700195314	-2.290094482421875	0		-1.062934814453125	0.12684312438964843	0		-0.8050942993164063	-2.430876220703125	0		1.631100341796875	-0.4267342834472656	0		3.24145458984375	-0.004870753765106201	0		4.60440185546875	0.15813423156738282	0		5.61012890625	0.1179843521118164	0		-0.19692156982421874	5.9230439453125	0		
-0.0019334690570831298	-0.0011257460117340087	0		0.40640499877929687	-2.295343994140625	0		-1.1338480224609375	0.13199661254882813	0		-0.7721278076171875	-2.435473876953125	0		1.6530958251953125	-0.4281186218261719	0		3.2313486328125	-0.011695578575134277	0		4.60441064453125	0.15815534973144532	0		5.607201171875	0.10604736328125	0		-0.19794529724121093	5.9250263671875	0		
-0.0019142800569534302	-0.0011471769809722901	0		0.44844671630859373	-2.295072265625	0		-1.1378963623046876	0.12803750610351564	0		-0.81112451171875	-2.4368408203125	0		1.6221722412109374	-0.4246090393066406	0		3.22240283203125	-0.009549062728881836	0		4.60442919921875	0.15815725708007813	0		5.61431103515625	0.10057736206054688	0		-0.1969900360107422	5.9229873046875	0		
